<svg xmlns="http://www.w3.org/2000/svg" xmlns:xlink="http://www.w3.org/1999/xlink" viewBox="0 0 1000 1000"><defs><style>.cls-1{fill:url(#linear-gradient);}.cls-2{fill:#191919;}.cls-3{fill:url(#linear-gradient-2);}.cls-4{fill:url(#linear-gradient-3);}.cls-5{fill:url(#linear-gradient-4);}.cls-6{fill:url(#linear-gradient-5);}.cls-7{fill:url(#linear-gradient-6);}.cls-8{fill:url(#linear-gradient-7);}.cls-9{fill:url(#linear-gradient-8);}.cls-10{fill:url(#linear-gradient-9);}.cls-11{fill:url(#linear-gradient-10);}.cls-12{fill:url(#linear-gradient-11);}.cls-13{fill:#ededed;}</style><linearGradient id="linear-gradient" x1="426.3" y1="534.68" x2="462.26" y2="534.68" gradientUnits="userSpaceOnUse"><stop offset="0" stop-color="#ffff6a"/><stop offset="0.02" stop-color="#fcf866"/><stop offset="0.11" stop-color="#f4e25b"/><stop offset="0.22" stop-color="#edd153"/><stop offset="0.34" stop-color="#e8c54c"/><stop offset="0.52" stop-color="#e6be49"/><stop offset="1" stop-color="#e5bc48"/></linearGradient><linearGradient id="linear-gradient-2" x1="426.3" y1="592.78" x2="462.26" y2="592.78" xlink:href="#linear-gradient"/><linearGradient id="linear-gradient-3" x1="645.05" y1="448.22" x2="707.95" y2="448.22" xlink:href="#linear-gradient"/><linearGradient id="linear-gradient-4" x1="258.31" y1="473.19" x2="274.68" y2="473.19" xlink:href="#linear-gradient"/><linearGradient id="linear-gradient-5" x1="426.3" y1="472.69" x2="714.3" y2="472.69" xlink:href="#linear-gradient"/><linearGradient id="linear-gradient-6" x1="322.76" y1="473.19" x2="409.76" y2="473.19" xlink:href="#linear-gradient"/><linearGradient id="linear-gradient-7" x1="271.93" y1="473.19" x2="358.93" y2="473.19" xlink:href="#linear-gradient"/><linearGradient id="linear-gradient-8" x1="297.34" y1="447.78" x2="384.34" y2="447.78" xlink:href="#linear-gradient"/><linearGradient id="linear-gradient-9" x1="297.34" y1="498.6" x2="384.34" y2="498.6" xlink:href="#linear-gradient"/><linearGradient id="linear-gradient-10" x1="419.47" y1="472.69" x2="424.39" y2="472.69" xlink:href="#linear-gradient"/><linearGradient id="linear-gradient-11" x1="412.05" y1="472.69" x2="416.97" y2="472.69" xlink:href="#linear-gradient"/></defs><title>u_dram_4</title><g id="Layer_3" data-name="Layer 3"><path class="cls-1" d="M462.26,487.31v76.76a18,18,0,1,1-36,0V487.31h7.19v76.76a10.79,10.79,0,0,0,21.58,0V487.31Z"/><path class="cls-2" d="M525.37,573.07a22.51,22.51,0,0,1-22.45,22.44H483.69V487.31h19.24a22.51,22.51,0,0,1,22.45,22.44ZM517,509.75a14,14,0,0,0-14.11-14.11H492v91.54h10.9A14,14,0,0,0,517,573.07Z"/><path class="cls-2" d="M581.16,595.52h-8.34V559.61a14,14,0,0,0-14.11-14.11h-10.1v50h-8.34V487.31h18.44a22.51,22.51,0,0,1,22.44,22.44v13.31a22.6,22.6,0,0,1-9.46,18.28,22.83,22.83,0,0,1,9.46,18.28Zm-22.44-58.35a14,14,0,0,0,14.11-14.11V509.75a14,14,0,0,0-14.11-14.11h-10.1v41.52Z"/><path class="cls-2" d="M636.62,595.52h-8.34L624,567.78H602l-4.17,27.73h-8.34L606,487.31h14.11Zm-33.35-36.07h19.4l-9.46-62.84h-.32Z"/><path class="cls-2" d="M682,595.52h-9.46l-17.15-90.74h-.32v90.74h-8.34V487.31h12.5L677,582.69h.32l18-95.39H708V595.52h-8.34V504h-.32Z"/><rect class="cls-3" x="426.3" y="590.38" width="35.96" height="4.8"/></g><g id="Layer_4" data-name="Layer 4"><path class="cls-4" d="M645,431.83H708a0,0,0,0,1,0,0v29.11a3.67,3.67,0,0,1-3.67,3.67H648.72a3.67,3.67,0,0,1-3.67-3.67V431.83A0,0,0,0,1,645,431.83Z"/><path class="cls-5" d="M266.49,481.38a8.19,8.19,0,1,1,8.19-8.19A8.2,8.2,0,0,1,266.49,481.38Zm0-12.87a4.69,4.69,0,1,0,4.69,4.69A4.69,4.69,0,0,0,266.49,468.5Z"/><path class="cls-6" d="M426.3,469.69h285a3,3,0,0,1,3,3v0a3,3,0,0,1-3,3h-285a0,0,0,0,1,0,0v-6a0,0,0,0,1,0,0Z"/><path class="cls-7" d="M366.26,516.69a43.5,43.5,0,1,1,43.5-43.5A43.55,43.55,0,0,1,366.26,516.69Zm0-83a39.5,39.5,0,1,0,39.5,39.5A39.54,39.54,0,0,0,366.26,433.69Z"/><path class="cls-8" d="M315.43,516.69a43.5,43.5,0,1,1,43.5-43.5A43.55,43.55,0,0,1,315.43,516.69Zm0-83a39.5,39.5,0,1,0,39.5,39.5A39.54,39.54,0,0,0,315.43,433.69Z"/><path class="cls-9" d="M340.84,491.28a43.5,43.5,0,1,1,43.5-43.5A43.55,43.55,0,0,1,340.84,491.28Zm0-83a39.5,39.5,0,1,0,39.5,39.5A39.54,39.54,0,0,0,340.84,408.28Z"/><path class="cls-10" d="M340.84,542.1a43.5,43.5,0,1,1,43.5-43.5A43.55,43.55,0,0,1,340.84,542.1Zm0-83a39.5,39.5,0,1,0,39.5,39.5A39.54,39.54,0,0,0,340.84,459.1Z"/><rect class="cls-11" x="419.47" y="467.4" width="4.92" height="10.57" rx="2.46" ry="2.46"/><rect class="cls-12" x="412.05" y="465.11" width="4.92" height="15.17" rx="2.46" ry="2.46"/><rect class="cls-13" x="653.55" y="431.83" width="15" height="15"/><rect class="cls-13" x="686.62" y="431.83" width="12.6" height="15"/></g></svg>