<svg width="465" height="151" xmlns="http://www.w3.org/2000/svg">
 <defs>
  <style>.cls-1{fill:url(#linear-gradient);}.cls-2{fill:url(#linear-gradient-2);}.cls-3{fill:url(#linear-gradient-3);}.cls-4{fill:url(#linear-gradient-4);}.cls-5{fill:url(#linear-gradient-5);}.cls-6{fill:url(#linear-gradient-6);}.cls-7{fill:url(#linear-gradient-7);}.cls-8{fill:url(#linear-gradient-8);}.cls-9{fill:url(#linear-gradient-9);}.cls-10{fill:#ededed;}</style>
 </defs>
 <title>u_dram_6</title>
 <g>
  <title>background</title>
  <rect fill="none" id="canvas_background" height="153" width="467" y="-1" x="-1"/>
 </g>
 <g>
  <title>Layer 1</title>
  <path id="svg_1" d="m389,29.83l63,0a0,0 0 0 1 0,0l0,29.11a3.67,3.67 0 0 1 -3.67,3.67l-55.61,0a3.67,3.67 0 0 1 -3.67,-3.67l0,-29.11a0,0 0 0 1 -0.05,0z" class="cls-1"/>
  <path id="svg_2" d="m10.49,79.38a8.19,8.19 0 1 1 8.19,-8.19a8.2,8.2 0 0 1 -8.19,8.19zm0,-12.87a4.69,4.69 0 1 0 4.69,4.69a4.69,4.69 0 0 0 -4.69,-4.7l0,0.01z" class="cls-2"/>
  <path id="svg_3" d="m170.3,67.69l285,0a3,3 0 0 1 3,3l0,0a3,3 0 0 1 -3,3l-285,0a0,0 0 0 1 0,0l0,-6a0,0 0 0 1 0,0z" class="cls-3"/>
  <path id="svg_4" d="m110.26,114.69a43.5,43.5 0 1 1 43.5,-43.5a43.55,43.55 0 0 1 -43.5,43.5zm0,-83a39.5,39.5 0 1 0 39.5,39.5a39.54,39.54 0 0 0 -39.5,-39.5z" class="cls-4"/>
  <path id="svg_5" d="m59.43,114.69a43.5,43.5 0 1 1 43.5,-43.5a43.55,43.55 0 0 1 -43.5,43.5zm0,-83a39.5,39.5 0 1 0 39.5,39.5a39.54,39.54 0 0 0 -39.5,-39.5z" class="cls-5"/>
  <path id="svg_6" d="m84.84,89.28a43.5,43.5 0 1 1 43.5,-43.5a43.55,43.55 0 0 1 -43.5,43.5zm0,-83a39.5,39.5 0 1 0 39.5,39.5a39.54,39.54 0 0 0 -39.5,-39.5z" class="cls-6"/>
  <path id="svg_7" d="m84.84,140.1a43.5,43.5 0 1 1 43.5,-43.5a43.55,43.55 0 0 1 -43.5,43.5zm0,-83a39.5,39.5 0 1 0 39.5,39.5a39.54,39.54 0 0 0 -39.5,-39.5z" class="cls-7"/>
  <rect id="svg_8" ry="2.46" rx="2.46" height="10.57" width="4.92" y="65.4" x="163.47" class="cls-8"/>
  <rect id="svg_9" ry="2.46" rx="2.46" height="15.17" width="4.92" y="63.11" x="156.05" class="cls-9"/>
  <rect id="svg_10" height="15" width="15" y="29.83" x="397.55" class="cls-10"/>
  <rect id="svg_11" height="15" width="12.6" y="29.83" x="430.62" class="cls-10"/>
 </g>
</svg>